Coordinates
version=1
nRows=6
nColumns=63
inDegrees=yes

Units are S.I. units (second, meters, Newtons, ...)
If the header above contains a line with 'inDegrees', this indicates whether rotational values are in degrees (yes) or radians (no).

endheader
time	pelvis_tilt	pelvis_list	pelvis_rotation	pelvis_tx	pelvis_ty	pelvis_tz	hip_flexion_r	hip_adduction_r	hip_rotation_r	knee_angle_r	knee_angle_r_beta	ankle_angle_r	subtalar_angle_r	mtp_angle_r	hip_flexion_l	hip_adduction_l	hip_rotation_l	knee_angle_l	knee_angle_l_beta	ankle_angle_l	subtalar_angle_l	mtp_angle_l	L5_S1_Flex_Ext	L5_S1_Lat_Bending	L5_S1_axial_rotation	L4_L5_Flex_Ext	L4_L5_Lat_Bending	L4_L5_axial_rotation	L3_L4_Flex_Ext	L3_L4_Lat_Bending	L3_L4_axial_rotation	L2_L3_Flex_Ext	L2_L3_Lat_Bending	L2_L3_axial_rotation	L1_L2_Flex_Ext	L1_L2_Lat_Bending	L1_L2_axial_rotation	L1_T12_Flex_Ext	L1_T12_Lat_Bending	L1_T12_axial_rotation	Abs_r3	Abs_r2	Abs_r1	Abs_t1	Abs_t2	neck_flexion	neck_bending	neck_rotation	arm_flex_r	arm_add_r	arm_rot_r	elbow_flex_r	pro_sup_r	wrist_flex_r	wrist_dev_r	arm_flex_l	arm_add_l	arm_rot_l	elbow_flex_l	pro_sup_l	wrist_flex_l	wrist_dev_l
2.728814	38.131760	-11.591014	147.317668	0.313210	0.722218	0.781800	64.383769	-4.972396	-42.458434	63.205352	1.103141	44.645447	-15.597924	0.000000	83.748021	5.262220	33.182741	74.097749	1.293250	35.000413	16.360180	0.000000	-0.710964	2.691624	7.689808	-1.320332	3.579860	8.170421	-1.168043	6.544414	8.170421	-0.812561	6.544414	6.728582	-0.660201	5.488759	6.247969	-0.406245	4.169325	5.767356	-5.078346	30.448187	42.768403	0.000000	0.000000	17.130494	-26.095377	-35.792525	43.592949	-25.821923	137.983286	2.170923	3.707379	-22.884028	-12.583454	48.927875	33.660803	174.186160	0.111085	1.558111	-71.075728	-17.241742
2.745763	37.852220	-11.245482	147.353688	0.311046	0.723590	0.782354	63.922060	-5.055496	-42.559043	63.259813	1.104092	44.306217	-15.787768	0.000000	83.180613	5.150849	33.035049	73.817407	1.288357	35.217337	16.727588	0.000000	-0.734831	2.767857	7.735262	-1.364655	3.681250	8.218716	-1.207255	6.729768	8.218716	-0.839839	6.729768	6.768354	-0.682364	5.644214	6.284901	-0.419883	4.287411	5.801447	-5.248827	31.310555	43.021208	0.000000	0.000000	16.851874	-26.162287	-36.421104	43.053593	-26.609706	132.507143	2.888606	3.662651	-21.622509	-13.121219	48.939324	34.347090	174.914919	0.107307	1.520071	-71.673511	-16.811619
2.762712	37.685893	-11.232139	147.372417	0.309428	0.724038	0.782744	63.865714	-5.193323	-42.415650	63.483336	1.107993	44.005202	-16.046725	0.000000	82.922375	4.949932	32.608436	73.553380	1.283749	35.473142	17.100661	0.000000	-0.744242	2.802362	7.723476	-1.382132	3.727142	8.206194	-1.222715	6.813663	8.206194	-0.850594	6.813663	6.758042	-0.691103	5.714577	6.275325	-0.425260	4.340859	5.792607	-5.316046	31.700881	42.955658	0.000000	0.000000	16.968779	-25.992997	-36.581219	42.550447	-26.997667	126.164514	3.748187	3.673801	-20.102341	-13.628859	48.900648	34.646675	175.201661	0.105559	1.465672	-71.052824	-16.489909
2.779661	37.672036	-11.468483	147.386527	0.308246	0.723498	0.783039	64.173868	-5.374891	-42.125979	63.863740	1.114633	43.773734	-16.330183	0.000000	82.979917	4.680991	31.995994	73.345001	1.280112	35.787241	17.475390	0.000000	-0.737626	2.808964	7.656026	-1.369846	3.735923	8.134528	-1.211846	6.829716	8.134528	-0.843033	6.829716	6.699023	-0.684960	5.728040	6.220521	-0.421480	4.351086	5.742020	-5.268790	31.775568	42.580522	0.000000	0.000000	17.465688	-25.645939	-36.056315	42.099278	-27.003466	119.196164	4.727296	3.653698	-18.385411	-14.192035	48.791016	34.593302	174.892826	0.108485	1.404607	-69.136883	-16.260190
2.796610	37.845356	-11.863316	147.411815	0.307364	0.722023	0.783260	64.778029	-5.571128	-41.800242	64.356266	1.123229	43.625749	-16.600716	0.000000	83.336855	4.359085	31.302008	73.210947	1.277772	36.168405	17.861289	0.000000	-0.712988	2.802409	7.534975	-1.324090	3.727204	8.005911	-1.171368	6.813777	8.005911	-0.814874	6.813777	6.593103	-0.662080	5.714672	6.122167	-0.407401	4.340932	5.651231	-5.092801	31.701411	41.907269	0.000000	0.000000	18.297111	-25.172270	-34.609501	41.738482	-26.641959	112.313219	5.731872	3.474889	-16.512574	-14.819050	48.600376	34.238107	174.103364	0.111779	1.329684	-66.086882	-15.959353
2.813559	38.141844	-12.406081	147.418834	0.306699	0.719586	0.783376	65.633620	-5.794079	-41.406851	64.994772	1.134373	43.572011	-16.814139	0.000000	83.949155	4.009487	30.524810	73.210059	1.277757	36.612022	18.217588	0.000000	-0.675593	2.780869	7.373025	-1.254644	3.698556	7.833840	-1.109932	6.761404	7.833840	-0.772135	6.761404	6.451397	-0.627356	5.670748	5.990583	-0.386034	4.307566	5.529769	-4.825694	31.457744	41.006555	0.000000	0.000000	19.365025	-24.554345	-32.315072	41.439140	-25.990729	104.697943	6.901378	3.453495	-14.602239	-15.590499	48.362304	33.616305	172.956279	0.128146	1.395463	-62.029865	-15.597699
